<svg width="13" height="18" viewBox="0 0 13 18" fill="none" xmlns="http://www.w3.org/2000/svg">
<path d="M6.5 17.9096L6.19137 17.463C5.95925 17.1266 0.5 9.18713 0.5 6C0.5 2.69175 3.19175 0 6.5 0C9.80825 0 12.5 2.69175 12.5 6C12.5 9.18713 7.04075 17.1266 6.80863 17.463L6.5 17.9096ZM6.5 0.75C3.605 0.75 1.25 3.105 1.25 6C1.25 8.54513 5.33187 14.8331 6.5 16.5802C7.66813 14.8331 11.75 8.54513 11.75 6C11.75 3.105 9.395 0.75 6.5 0.75Z" fill="white"/>
<path d="M6.5 8.625C5.05288 8.625 3.875 7.4475 3.875 6C3.875 4.5525 5.05288 3.375 6.5 3.375C7.94712 3.375 9.125 4.5525 9.125 6C9.125 7.4475 7.94712 8.625 6.5 8.625ZM6.5 4.125C5.46613 4.125 4.625 4.96613 4.625 6C4.625 7.03387 5.46613 7.875 6.5 7.875C7.53387 7.875 8.375 7.03387 8.375 6C8.375 4.96613 7.53387 4.125 6.5 4.125Z" fill="white"/>
</svg>
