<svg width="28" height="27" viewBox="0 0 28 27" fill="none" xmlns="http://www.w3.org/2000/svg">
<path d="M13.7734 26C20.677 26 26.2734 20.4036 26.2734 13.5C26.2734 6.59644 20.677 1 13.7734 1C6.86988 1 1.27344 6.59644 1.27344 13.5C1.27344 20.4036 6.86988 26 13.7734 26Z" stroke="white" stroke-width="2"/>
<path fill-rule="evenodd" clip-rule="evenodd" d="M11.7764 12.5436V14.4563C11.7764 14.4563 13.6286 14.4537 14.3827 14.4537C13.9742 15.6938 13.3393 16.369 11.7764 16.369C10.1947 16.369 8.96019 15.0845 8.96019 13.4998C8.96019 11.9154 10.1947 10.6309 11.7764 10.6309C12.6126 10.6309 13.1527 10.9254 13.6481 11.3358C14.0446 10.9386 14.0115 10.8818 15.0203 9.92712C14.1638 9.14624 13.0256 8.67041 11.7764 8.67041C9.11403 8.67041 6.95532 10.8325 6.95532 13.4998C6.95532 16.167 9.11403 18.3295 11.7764 18.3295C15.756 18.3295 16.7288 14.858 16.4064 12.5436H11.7764ZM20.4635 12.6391V10.9657H19.2704V12.6391H17.5518V13.8345H19.2704V15.5562H20.4635V13.8345H22.134V12.6391H20.4635Z" fill="#FFFDFD"/>
</svg>
