<svg width="13" height="10" viewBox="0 0 13 10" fill="none" xmlns="http://www.w3.org/2000/svg">
<path d="M1.65176 3.192C1.80356 3.29912 2.26113 3.61726 3.02451 4.14625C3.78791 4.67525 4.37273 5.08256 4.77898 5.36821C4.82362 5.39952 4.91845 5.46759 5.06351 5.5725C5.2086 5.67748 5.32916 5.76232 5.42509 5.82703C5.52109 5.89172 5.63714 5.96429 5.77336 6.04462C5.90954 6.12488 6.03791 6.18525 6.15844 6.22522C6.279 6.26551 6.3906 6.28547 6.49326 6.28547H6.49999H6.50674C6.6094 6.28547 6.72105 6.26549 6.8416 6.22522C6.96209 6.18525 7.09057 6.12481 7.22663 6.04462C7.36277 5.96419 7.47882 5.89169 7.57482 5.82703C7.67082 5.76232 7.79128 5.67748 7.93642 5.5725C8.08146 5.46749 8.1764 5.39952 8.22104 5.36821C8.63168 5.08256 9.67642 4.35708 11.3549 3.19186C11.6808 2.96428 11.9531 2.68967 12.1718 2.36823C12.3907 2.04692 12.5 1.70986 12.5 1.35722C12.5 1.06254 12.3939 0.810282 12.1818 0.60048C11.9698 0.390632 11.7186 0.285767 11.4285 0.285767H1.57138C1.22766 0.285767 0.963134 0.40182 0.777866 0.633927C0.592622 0.86608 0.5 1.15626 0.5 1.50444C0.5 1.78569 0.622808 2.09046 0.868307 2.41856C1.11378 2.74669 1.37502 3.00453 1.65176 3.192Z" fill="white"/>
<path d="M11.8303 3.90843C10.3661 4.89941 9.25438 5.66957 8.49555 6.21873C8.24109 6.40616 8.03467 6.55247 7.87614 6.65731C7.71761 6.76222 7.50678 6.86936 7.24333 6.97868C6.97999 7.08817 6.73456 7.14275 6.50684 7.14275H6.50001H6.49328C6.26561 7.14275 6.02004 7.08817 5.75669 6.97868C5.49334 6.86936 5.28237 6.76222 5.12388 6.65731C4.96545 6.55247 4.75895 6.40616 4.50452 6.21873C3.90181 5.7768 2.79245 5.0066 1.17641 3.90843C0.921878 3.7389 0.696432 3.54458 0.5 3.32587V8.64267C0.5 8.93749 0.604865 9.18961 0.814714 9.39943C1.02451 9.60933 1.27679 9.71424 1.57145 9.71424H11.4286C11.7232 9.71424 11.9755 9.60933 12.1853 9.39943C12.3952 9.18954 12.5 8.93752 12.5 8.64267V3.32587C12.308 3.54005 12.0849 3.73438 11.8303 3.90843Z" fill="white"/>
</svg>
