<svg width="26" height="27" viewBox="0 0 26 27" fill="none" xmlns="http://www.w3.org/2000/svg">
<path d="M13 25.8788C19.6274 25.8788 25 20.5062 25 13.8788C25 7.25137 19.6274 1.87878 13 1.87878C6.37258 1.87878 1 7.25137 1 13.8788C1 20.5062 6.37258 25.8788 13 25.8788Z" stroke="white" stroke-width="2"/>
<path fill-rule="evenodd" clip-rule="evenodd" d="M8.09521 8.42424V10.4022C12.7134 10.4052 16.4669 14.1654 16.4712 18.7879H18.4546C18.4534 15.9313 17.292 13.3428 15.4152 11.4648C13.5384 9.58747 10.9512 8.42546 8.09521 8.42424ZM8.09216 11.9487V13.9272C9.38335 13.9278 10.6063 14.4354 11.5197 15.3512C12.4349 16.2646 12.9395 17.4882 12.9419 18.7842V18.7879H14.9302C14.9283 16.9026 14.1618 15.1952 12.923 13.9558C11.6842 12.7164 9.97685 11.9493 8.09216 11.9487ZM8.49432 18.3735V18.3729H8.49372L8.49432 18.3735ZM10.4393 16.4352C10.691 16.6863 10.8439 17.0263 10.8445 17.4053C10.8439 17.7831 10.691 18.1237 10.4406 18.3729L10.4393 18.3735C10.1895 18.6227 9.84706 18.7757 9.46683 18.7757C9.08599 18.7757 8.74476 18.6221 8.49432 18.3729C8.24511 18.1237 8.09094 17.7837 8.09094 17.4053C8.09094 17.0263 8.24511 16.6857 8.49432 16.4352C8.74476 16.186 9.08599 16.0318 9.46683 16.0318C9.84706 16.0318 10.1895 16.186 10.4393 16.4352Z" fill="white"/>
</svg>
