<svg width="13" height="12" viewBox="0 0 13 12" fill="none" xmlns="http://www.w3.org/2000/svg">
<path d="M12.446 9.56459L12.3863 9.38462C12.2448 8.96416 11.7811 8.52563 11.3552 8.4101L9.77864 7.97942C9.3511 7.86311 8.74124 8.01951 8.42844 8.33229L7.85785 8.90287C5.78424 8.34255 4.15821 6.71646 3.59864 4.64326L4.16925 4.07265C4.48205 3.75985 4.63843 3.15079 4.52211 2.72325L4.09222 1.14593C3.9759 0.71918 3.53658 0.255508 3.11691 0.115604L2.93695 0.0550956C2.51648 -0.0848083 1.91683 0.05668 1.60405 0.369458L0.750543 1.22374C0.598065 1.37542 0.500612 1.80924 0.500612 1.81082C0.470761 4.52063 1.53331 7.1314 3.45011 9.04823C5.36222 10.9603 7.9632 12.0213 10.6651 11.9985C10.6793 11.9985 11.1257 11.9026 11.2781 11.7509L12.1317 10.8974C12.4444 10.5847 12.5859 9.98506 12.446 9.56459Z" fill="white"/>
</svg>
