<svg width="28" height="27" viewBox="0 0 28 27" fill="none" xmlns="http://www.w3.org/2000/svg">
<path d="M13.7734 26C20.677 26 26.2734 20.4036 26.2734 13.5C26.2734 6.59644 20.677 1 13.7734 1C6.86988 1 1.27344 6.59644 1.27344 13.5C1.27344 20.4036 6.86988 26 13.7734 26Z" stroke="white" stroke-width="2"/>
<path fill-rule="evenodd" clip-rule="evenodd" d="M18.6178 10.5715C19.1234 10.2524 19.5114 9.74642 19.6935 9.14368C19.2201 9.43988 18.6969 9.65409 18.1387 9.77005C17.6933 9.26778 17.0567 8.95459 16.3521 8.95459C15.0005 8.95459 13.9051 10.1106 13.9051 11.5362C13.9051 11.7385 13.9254 11.9358 13.9675 12.1241C11.9337 12.0163 10.1303 10.9896 8.92216 9.42658C8.71136 9.8092 8.5909 10.2524 8.5909 10.7251C8.5909 11.6204 9.02301 12.4107 9.67994 12.8746C9.27864 12.8613 8.90115 12.7438 8.57059 12.5518V12.5836C8.57059 13.8348 9.41381 14.8785 10.5351 15.1149C10.3292 15.1755 10.1135 15.2057 9.88934 15.2057C9.73177 15.2057 9.57769 15.1902 9.42922 15.1599C9.74017 16.1852 10.6443 16.9327 11.7158 16.9526C10.8775 17.6455 9.82211 18.0576 8.67564 18.0576C8.47814 18.0576 8.28275 18.0466 8.09155 18.0222C9.17499 18.7542 10.4615 19.1819 11.844 19.1819C16.3472 19.1819 18.8083 15.2478 18.8083 11.836C18.8083 11.7238 18.8069 11.6122 18.802 11.5022C19.2803 11.138 19.6963 10.683 20.0234 10.1652C19.5843 10.3706 19.1122 10.5094 18.6178 10.5715Z" fill="white"/>
</svg>
