<svg width="26" height="27" viewBox="0 0 26 27" fill="none" xmlns="http://www.w3.org/2000/svg">
<path d="M13 25.8788C19.6274 25.8788 25 20.5062 25 13.8788C25 7.25137 19.6274 1.87878 13 1.87878C6.37258 1.87878 1 7.25137 1 13.8788C1 20.5062 6.37258 25.8788 13 25.8788Z" stroke="white" stroke-width="2"/>
<path fill-rule="evenodd" clip-rule="evenodd" d="M18.4545 15.8229V11.9347C18.4545 11.9347 18.4545 10.0606 16.5745 10.0606H9.42474C9.42474 10.0606 7.54541 10.0606 7.54541 11.9347V15.8229C7.54541 15.8229 7.54541 17.697 9.42474 17.697H16.5745C16.5745 17.697 18.4545 17.697 18.4545 15.8229ZM15.1179 13.8842L11.5465 15.9751V11.7927L15.1179 13.8842Z" fill="white"/>
</svg>
